<?xml version="1.0" encoding="UTF-8"?>
<svg version="1.1" viewBox="0 0 2048 948" width="1280" height="1280" xmlns="http://www.w3.org/2000/svg">
<path transform="translate(0)" d="m0 0h2048v948h-2048z" fill="#21201F"/>
<path transform="translate(612,317)" d="m0 0h84l7 4 5 6 1 2 1 9v70l-2 9-7 8-4 2-6 1h-76l-8-3-5-4-3-5-1-4v-81l4-7 6-5z" fill="#EEF0C9"/>
<path transform="translate(515,337)" d="m0 0h50l15 1 6 4 4 5 1 3v66l-4 6-5 4-7 2h-61l-8-4-4-5-1-2v-69l4-6 6-4z" fill="#EEF0C9"/>
<path transform="translate(415,435)" d="m0 0h66l6 3 5 6 1 2v68l-4 6-5 4-3 1h-66l-8-5-4-7v-67l6-8z" fill="#EEF0C9"/>
<path transform="translate(514,532)" d="m0 0h63l7 3 5 5 2 5v65l-3 6-6 5-3 1h-67l-8-5-3-6v-68l4-6 6-4z" fill="#EEF0C9"/>
<path transform="translate(1449,451)" d="m0 0h12l1 1 1 42 9-7 7-3h14l9 4 8 9 4 11 1 7v13l-3 13-7 11-8 6-8 3h-14l-8-4-5-5-2 8h-11l-1-1v-107z" fill="#EEF0C9"/>
<path transform="translate(1113,484)" d="m0 0h18l8 3 21 1v5l-3 3-8 2 2 7-1 10-4 7-7 6-7 3-6 1h-8l-6-1-3 4v5l4 2 30 3 8 3 5 5 2 4v8l-3 8-7 7-14 6-3 1h-17l-14-5-8-7-2-4v-8l3-5 7-6h2v-2l-4-2-2-5 1-7 6-7h2l-5-5-4-5-2-6v-11l4-8 8-7z" fill="#EEF0C9"/>
<path transform="translate(520,446)" d="m0 0h51l6 4 3 6v48l-3 6-6 4h-50l-6-4-4-6v-48l4-6z" fill="#EEF0C9"/>
<path transform="translate(422,349)" d="m0 0h52l5 3 3 5v51l-4 6-6 3h-48l-6-4-4-5v-51l6-7z" fill="#EEF0C9"/>
<path transform="translate(956,484)" d="m0 0h15l11 4 8 6 6 10 3 10v17l-3 10-6 10-8 6-11 4h-16l-12-5-7-6-5-8-3-9-1-14 2-11 5-10 6-7 12-6z" fill="#EEF0C9"/>
<path transform="translate(1553,484)" d="m0 0h14l9 3 7 5 6 9 3 12v8l-2 2h-51l3 14 5 8 8 4 9 1 10-2 9-5 4 1 3 4-1 4-9 6-11 3h-16l-12-5-6-5-6-10-3-9-1-14 3-13 6-10 7-6 8-4z" fill="#EEF0C9"/>
<path transform="translate(1300,454)" d="m0 0h14l6 12 26 65 3 9 18-46 15-37 3-3h14l-6 16-16 39-20 49-1 2h-13l-5-10-20-50-15-36-3-7z" fill="#EEF0C9"/>
<path transform="translate(1173,451)" d="m0 0h13l1 42 10-7 5-2h15l8 4 5 5 4 9 1 4v54h-13l-1-51-3-9-5-4-3-1h-8l-10 5-5 4-1 56h-13l-1-1v-107z" fill="#EEF0C9"/>
<path transform="translate(851,451)" d="m0 0h13l1 2-1 41 10-7 7-3h14l9 4 6 7 3 8v57h-13l-1-54-4-8-8-3-9 1-8 4-3 3h-2v56l-1 1h-13z" fill="#EEF0C9"/>
<path transform="translate(625,551)" d="m0 0h36l5 3 3 4 1 3v32l-3 7-4 3h-39l-6-5-1-2v-37l6-7z" fill="#EEF0C9"/>
<path transform="translate(755,454)" d="m0 0h83v12h-34v94h-15v-94h-34z" fill="#EEF0C9"/>
<path transform="translate(1013,485)" d="m0 0h14l1 55 4 7 4 2h13l9-5 3-3 1-56h14v75h-10l-2-3v-7l-11 8-8 3h-13l-9-4-6-7-3-7-1-7z" fill="#EEF0C9"/>
<path transform="translate(960,494)" d="m0 0 11 1 8 5 4 6 2 7v19l-3 9-5 6-6 3-10 1-10-3-6-7-3-8-1-14 2-11 6-9 7-4z" fill="#222120"/>
<path transform="translate(1479,494)" d="m0 0 10 1 6 4 4 6 2 9v15l-2 9-5 8-7 4-4 1h-7l-8-3-6-5v-38l7-7z" fill="#222120"/>
<path transform="translate(1263,461)" d="m0 0h9v25h18l4 1v9l-1 1h-21l1 46 2 5 2 1h7l6-3 5 6-1 4-7 4-4 1h-12l-8-5-4-8-1-51h-9l-2-2v-7l5-1h7l3-24z" fill="#EEF0C9"/>
<path transform="translate(630,461)" d="m0 0h27l5 5 1 3v22l-3 6-3 2h-27l-5-4-1-2v-26l4-5z" fill="#EEF0C9"/>
<path transform="translate(435,558)" d="m0 0h26l6 5v28l-4 5-5 1h-19l-7-2-3-4v-27l4-5z" fill="#EEF0C9"/>
<path transform="translate(616,314)" d="m0 0h76l7 2 7 5 4 7-1 2-6-8-7-4h-84l-8 5-4 5-1 3v81l3 7 5 5 8 3h76l11-2-4 4-13 2-69-1-11-3-7-7v-3h-5l-8 9-9 4h-57l-9-2-4-1-5-5v-3l-2-1-1-5-1-31 1-32 3-6 5-5 1 3-4 4-1 2v69l4 6 8 4h61l9-3 5-6 2-10 1-29 2 2 1-22v-21l1-10 5-7 9-6z" fill="#121112"/>
<path transform="translate(1412,485)" d="m0 0h13v75h-13l-1-1v-73z" fill="#EEF0C9"/>
<path transform="translate(1109,554)" d="m0 0h16l14 2 5 3 2 3-1 6-4 5-7 3-5 1h-12l-10-3-5-5v-8l4-5z" fill="#21201F"/>
<path transform="translate(1117,493)" d="m0 0h11l7 4 4 8-1 9-4 6-7 3h-9l-8-4-4-7v-8l4-7z" fill="#222120"/>
<path transform="translate(1554,494)" d="m0 0h13l8 5 4 8 1 7-1 1h-39l-1-2 4-11 7-6z" fill="#141313"/>
<path transform="translate(755,467)" d="m0 0h34v93h15v-93h34l-3 2-7 1h-9l-6 1h-6v85l-2 5-10 2-7-2-2-5-1-82-3-3-25-2z" fill="#111011"/>
<path transform="translate(952,482)" d="m0 0h20l7 2v2l6 1 8 7 2 6h2l5 19-1 15-8 16-9 8-7 4-8 2h-13l-11-3-10-7-6-10v-2l-2-1-2-7-1-8 1-13 4-12 6-9 8-7 5-1zm4 2-11 4-8 6-6 9-3 9-1 13 2 12 5 10 6 7 12 6 3 1h16l11-4 8-6 6-10 3-10v-17l-3-10-6-10-8-6-11-4z" fill="#131213"/>
<path transform="translate(1553,481)" d="m0 0 15 1 9 3 6 4 6 7 4 11 1 3v10l-3 4-2-1 2-2v-8l-3-12-5-7v-2l-12-6-4-1h-14l-9 3-9 7-6 10-3 13 1 14 4 11 6 9 10 6 6 2h16l13-4 7-5-1-4-1-3h-2v-2l4 2 3 4-1 4-6 5h-2v2l-6 3-9 2h-14l-10-3-10-7-6-8-4-9-2-13 1-15 7-14 4-4h2v-2l7-5 7-1z" fill="#131213"/>
<path transform="translate(1118,480)" d="m0 0 11 2v1l-13 1-12 5-7 8-2 5v11l4 9 6 5v2l-6 5-2 4 1 8 4 4v2l-6 4-4 4-1 3v8l4 6 5 4 14 5h17l15-6 8-7 3-3-2 5-7 7-5 3-12 4-8 1-13-1-4-2-6-1-2-1v-2l-5-2-5-9v-12h2v-4l4-4 1-3-2-8 1-7 2-5-1-6-4-8v-13l4-10h2v-2l9-7 3-2z" fill="#131213"/>
<path transform="translate(405,440)" d="m0 0 1 3-2 3v67l4 7 7 4h66l6-3 4-5 2-3 1-57h1l1 17v34l-2 9-7 8-7 3-7 1h-48l-13-2-7-4-5-7-1-7v-53l2-10z" fill="#151415"/>
<path transform="translate(1384,452)" d="m0 0 2 2-4 5-25 63-6 16-2 4-11-29-11-27-12-29-1-3h2l6 12 11 28 13 30 2 3 3-1 3-9 6-13 2-6 4-8 5-15 4-8 3-9h2l1-4z" fill="#131213"/>
<path transform="translate(502,538)" d="m0 0 1 3-1 2v68l3 6 7 4h67l7-4h3l-6 5-7 3h-37l-26-1-6-2-5-5-1-3-2-1-2-10 1-17v-40l2-7z" fill="#181717"/>
<path transform="translate(960,494)" d="m0 0 11 1 8 5 4 6 2 7v19l-3 9-5 6-6 3-10 1-10-3-6-7-3-8-1-14 2-11 6-9 7-4zm0 3-10 5v2l-3 1-3 8-1 10 1 11 4 8 5 5 5 2h11l8-6 4-7 2-14-1-10-4-8-3-3h-2v-2l-7-2z" fill="#131213"/>
<path transform="translate(861,450)" d="m0 0 5 1 1 25 1 3v5l11-3h11l9 2 9 7 3 3 5 14 1 15-1 35-2 3-1-55-5-12-7-6-6-2h-14l-12 6-3 3h-2v-42z" fill="#151415"/>
<path transform="translate(1117,493)" d="m0 0h11l7 4 4 8-1 9-4 6-7 3h-9l-8-4-4-7v-8l4-7zm-1 5-6 4-1 8 3 6 4 3 8 1 7-3 3-5v-8l-2-4-4-2z" fill="#131213"/>
<path transform="translate(1160,488)" d="m0 0h1v6l-2 3-3 1-2 4-2 16-9 10h-2v2l-12 5-5 1h-8l1 3 11 1 9 1 3 1v2h-19l-10-2-3-2 1-7 3-3 6 1h8l9-2 8-5 5-6 2-8-1-10-1-3 9-2 2-2z" fill="#131213"/>
<path transform="translate(1298,454)" d="m0 0 4 5 16 39 20 49 5 12-1 2-4-5-5-10-6-16-5-12-8-20-5-11-4-10-6-16-1-3z" fill="#131213"/>
<path transform="translate(1027,485)" d="m0 0 2 3 1 52 2 4 7 4h7l6-3h2l1-3h2l1-3 1-18 1-34 2-2v56l-7 6-6 3h-13l-6-4-3-6z" fill="#111011"/>
<path transform="translate(414,353)" d="m0 0h2l-1 4v51l5 6 4 2 50 1-1 2-6 1h-24l-18-1-7-3-5-4v-3l-2-1-1-36 1-15 1-2h2z" fill="#151415"/>
<path transform="translate(1463,454)" d="m0 0h1l1 25 1 5 9-2 4 1v-2l15 1 12 6v2l3 1 6 14 2 4 1 8v13l-2 7-1 3h-2l1-12v-13l-2-11-5-10-8-7-6-2h-14l-10 5-4 3h-2z" fill="#151414"/>
<path transform="translate(1559,497)" d="m0 0 7 1 5 4 3 2 1 7-12 1h-12l-5-1-1-4 8-7h2v-2z" fill="#222120"/>
<path transform="translate(1479,494)" d="m0 0 10 1 6 4 4 6 2 9v15l-2 9-5 8-7 4h-2v-2l5-3 1-2h2l3-9 1-17-2-11-4-5-2-1v-2h-11l-8 4-4 4-1 3-1 33h-1v-38l8-7z" fill="#131213"/>
<path transform="translate(1012,485)" d="m0 0h1l1 51 2 10 5 8 5 4 6 2h13l10-4 7-6h2v9h-2v-2l-7 2-10 5h-11l-9-3-7-4-3-4v-3h-2l-2-7-1-17v-13l1-26z" fill="#121112"/>
<path transform="translate(1415,452)" d="m0 0h6l5 3 2 4-1 7-6 5-7-1-5-5v-7l5-5z" fill="#EEF0C9"/>
<path transform="translate(616,314)" d="m0 0h76l7 2 7 5 4 7-1 2-6-8-7-4h-88v-2z" fill="#161515"/>
<path transform="translate(1257,496)" d="m0 0 2 1 1 51 4 8 7 4h12l10-3-5 5-11 2-9-2-8-5v-3h-2l-2-5-1-47-2-3-5-1v-1z" fill="#151414"/>
<path transform="translate(1171,451)" d="m0 0h1v109h-1l-1-7-1-18v-78z" fill="#111011"/>
<path transform="translate(1109,554)" d="m0 0h16l14 2 5 3 2 3-1 6-4 5-4 2-4-1 7-6v-5l-10-5-9-1h-9l-1 2-5 3-1 2h-2l3 4v2l4 2 3 3-6-1-5-5v-8l4-5z" fill="#131213"/>
<path transform="translate(505,339)" d="m0 0 2 1v2l-4 4-1 2v69l4 6 8 4-4 1-4-1-5-5v-3l-2-1-1-5-1-31 1-32 3-6z" fill="#161515"/>
<path transform="translate(670,558)" d="m0 0 2 4v33l-6 8-7 3h-33l-5-2-6-7v-37h1l1 34 4 6 3 2h39l5-5 1-4z" fill="#111011"/>
<path transform="translate(1202,494)" d="m0 0h8l6 3 4 5 1 2v56h-1l-1-11-1-41-2-5-4-3v-2h-10l-13 7-1 6h-1v-8l8-6z" fill="#121112"/>
<path transform="translate(762,451)" d="m0 0h73l4 3h-84l3-2z" fill="#111011"/>
<path transform="translate(509,457)" d="m0 0h1l1 38 1 9 4 6 5 3 51 1-2 2-17 2-29-1-10-4v-2l-3-1v-4l-2-1z" fill="#161516"/>
<path transform="translate(1399,454)" d="m0 0 1 3-2 7-5 11-4 11-3 6-8 20-6 13-4 12-4 8-7 16-2-1 15-36 15-37 13-32z" fill="#141314"/>
<path transform="translate(1187,468)" d="m0 0h1l1 12 1 2 15-1 11 1 7 3 8 6 4 8 1 9-2-2-4-12-5-5-8-4h-15l-10 5-6 4v-13z" fill="#141313"/>
<path transform="translate(969,482)" d="m0 0 7 1 3 1v2l6 1 8 7 2 6h2l5 19-1 15-8 16-9 8-6 1 12-9 7-14 1-5v-17l-3-10-6-10-9-6-9-3-12-1v-1z" fill="#151415"/>
<path transform="translate(1447,451)" d="m0 0h1v109h-1l-1-11-1-77 1-17z" fill="#111011"/>
<path transform="translate(1539,523)" d="m0 0 49 1v1l-15 1-2 1h-18l-8 1v8l5 9 7 3v1l-7-1-5-4-5-10-1-4z" fill="#121112"/>
<path transform="translate(881,494)" d="m0 0 10 1 6 4 3 7v26l-1 25h-1l-1-50-4-6-4-3h-8l-9 4-5 5v2h-2v-6l10-7z" fill="#141314"/>
<path transform="translate(1272,497)" d="m0 0h22l-4 2-13 2-2 6v38l5 2h7l-3 3h-7l-4-4-1-3z" fill="#161515"/>
<path transform="translate(699,425)" d="m0 0 3 1-7 4-17 1-62-1v-2l75-1z" fill="#111011"/>
<path transform="translate(477,350)" d="m0 0 4 2 3 5 2 15v17l-1 15-2 6h-1l-1-53z" fill="#161515"/>
<path transform="translate(663,466)" d="m0 0 2 3v23l-6 8-3 1h-26l-8-7-1-13 1-13h1l1 23 4 6 2 1h27l4-4 1-3z" fill="#161516"/>
<path transform="translate(428,562)" d="m0 0h1l1 29 4 4 5 1 23 1-4 2h-19l-7-2-4-3v-3l-2-1v-23z" fill="#141314"/>
<path transform="translate(1463,454)" d="m0 0h1l1 25 1 5 9-2 4 1v-2l12 1v1l-10 1-12 6-4 3h-2z" fill="#121112"/>
<path transform="translate(1511,542)" d="m0 0 1 3-7 9-9 7-9 3h-9l-15-5h-2v-8l8 6 6 3h14l10-4 6-5z" fill="#151414"/>
<path transform="translate(1564,482)" d="m0 0 8 1 10 5 5 5 5 10 2 7v10l-3 4-2-1 2-2v-8l-3-12-5-7v-2l-12-6-14-2v-1z" fill="#141314"/>
<path transform="translate(670,558)" d="m0 0 2 4v33l-6 8-2 1h-39v-1l38-1 5-5 1-4z" fill="#171616"/>
<path transform="translate(422,417)" d="m0 0h52l-1 2-6 1h-24l-18-1z" fill="#111011"/>
<path transform="translate(1160,488)" d="m0 0h1v6l-2 3-3 1-2 4-2 16-9 10h-2v2l-4-1 5-4 6-7 2-8-1-10-1-3 9-2 2-2z" fill="#141313"/>
<path transform="translate(913,501)" d="m0 0 2 3 1 3 1 15-1 35-2 3z" fill="#111011"/>
<path transform="translate(1156,570)" d="m0 0 1 2-7 8-7 5-12 4-8 1-13-1-2-1v-2h23l15-6 8-7z" fill="#151414"/>
<path transform="translate(1062,550)" d="m0 0h2v9h-2v-2l-7 2-10 5h-11l-2-1v-2l13-1 10-4z" fill="#141314"/>
<path transform="translate(502,538)" d="m0 0 1 3-2 3-1 43-2-1v-40l2-7z" fill="#111011"/>
<path transform="translate(941,519)" d="m0 0 1 4h2l1 11 4 8 4 4 5 2h11l3-1-1 3-10 1-10-3-6-7-3-8z" fill="#161515"/>
<path transform="translate(1375,511)" d="m0 0h1v6l-4 8-4 12-4 8-7 16-2-1 15-36z" fill="#161515"/>
<path transform="translate(514,335)" d="m0 0h24l38 1v1l-61 1-7 1 3-3z" fill="#111011"/>
<path transform="translate(509,457)" d="m0 0h1l1 38 1 9 4 6 5 4h-6l-1-3-3-1v-4l-2-1z" fill="#111011"/>
<path transform="translate(1089,565)" d="m0 0h1l2 8 6 7 12 5-4 2-6-1-2-1v-2l-5-2-5-9z" fill="#141314"/>
<path transform="translate(1262,460)" d="m0 0 2 1-2 9-3 17h-9l4-2h2l3-21z" fill="#141314"/>
<path transform="translate(1462,505)" d="m0 0h1v37l4 2 4 3 3 1 11 1-2 2h-7l-8-3-6-5z" fill="#1C1B1B"/>
<path transform="translate(1314,454)" d="m0 0h2l6 12 10 25v5l-2-2-11-28z" fill="#161515"/>
<path transform="translate(1515,512)" d="m0 0h2l1 5v13l-2 7-1 3h-2l1-12z" fill="#121112"/>
<path transform="translate(622,468)" d="m0 0h1l1 23 4 6 3 2 25 1v1h-26l-8-7-1-13z" fill="#121112"/>
<path transform="translate(1585,542)" d="m0 0 4 2 3 4-1 4-6 5h-2v2l-6 3h-5l2-3 9-4 6-4-1-4-1-3h-2z" fill="#151414"/>
<path transform="translate(1399,454)" d="m0 0 1 3-2 7-5 11-3 7-3 2 3-9 8-20z" fill="#151415"/>
<path transform="translate(1416,450)" d="m0 0 7 1v1l-8 1-5 5v7l7 7-4-1-5-4-1-2v-7l5-7z" fill="#151414"/>
<path transform="translate(893,482)" d="m0 0 6 1 9 7 3 3 2 5v5l-2-3-4-8-6-5-6-2-12-1v-1z" fill="#191818"/>
<path transform="translate(615,560)" d="m0 0h1l1 34 4 6 1 2-5-2-2-5z" fill="#121112"/>
<path transform="translate(1273,463)" d="m0 0h1l1 19 5 1v1h8l2 2h-17z" fill="#111011"/>
<path transform="translate(969,482)" d="m0 0 7 1 3 1v2l6 1 3 3-2 2-8-5-7-2-12-1v-1z" fill="#161515"/>
<path transform="translate(952,482)" d="m0 0h16v1l-12 2-10 3 2-5z" fill="#131213"/>
<path transform="translate(1291,557)" d="m0 0 2 1-5 4-11 2v-2l-4-1 14-2z" fill="#161515"/>
<path transform="translate(1591,506)" d="m0 0 2 1 1 3v10l-3 4-2-1 2-2z" fill="#131213"/>
<path transform="translate(1564,482)" d="m0 0 8 1 5 2 1 4-11-4-10-1v-1z" fill="#181717"/>
<path transform="translate(1491,482)" d="m0 0 6 1 6 4-1 2-9-4-12-1v-1z" fill="#191818"/>
<path transform="translate(501,611)" d="m0 0 3 4 4 4 5 3-4 1-5-3-4-7z" fill="#151414"/>
<path transform="translate(1108,586)" d="m0 0 21 1v1l-19 1-2-1z" fill="#1A1919"/>
<path transform="translate(511,504)" d="m0 0 4 5 6 4v1h-6l-1-3-3-1z" fill="#161516"/>
<path transform="translate(1274,546)" d="m0 0 13 1-3 3h-7l-3-2z" fill="#151415"/>
<path transform="translate(941,519)" d="m0 0 1 4h2v11l-2-1z" fill="#171616"/>
<path transform="translate(1511,500)" d="m0 0h2l4 9-2 6h-1l-2-11z" fill="#161515"/>
<path transform="translate(606,317)" d="m0 0 4 2-9 6v-4z" fill="#151415"/>
<path transform="translate(1028,540)" d="m0 0h2l2 4 6 5-2 1-6-4z" fill="#161515"/>
<path transform="translate(1146,521)" d="m0 0 2 1-5 6h-2v2l-4-1 5-4z" fill="#161516"/>
<path transform="translate(1384,452)" d="m0 0 2 2-4 5-2 3-2-4h2l1-4z" fill="#141314"/>
<path transform="translate(1586,496)" d="m0 0h3l3 7-1 5-5-10z" fill="#151415"/>
<path transform="translate(969,482)" d="m0 0 7 1 1 2-18-1v-1z" fill="#181717"/>
</svg>
