<?xml version="1.0" standalone="no"?>
<!DOCTYPE svg PUBLIC "-//W3C//DTD SVG 20010904//EN"
 "http://www.w3.org/TR/2001/REC-SVG-20010904/DTD/svg10.dtd">
<svg version="1.0" xmlns="http://www.w3.org/2000/svg"
 width="300.000000pt" height="139.000000pt" viewBox="0 0 300.000000 139.000000"
 preserveAspectRatio="xMidYMid meet">
<metadata>
Created by potrace 1.10, written by Peter Selinger 2001-2011
</metadata>
<g transform="translate(0.000000,139.000000) scale(0.100000,-0.100000)"
fill="#000000" stroke="none">
<path d="M903 958 c-18 -5 -35 -13 -38 -18 -3 -6 -33 -10 -65 -10 -32 0 -62
-4 -65 -10 -3 -5 -32 -10 -64 -10 -48 0 -61 -4 -81 -25 -20 -21 -22 -31 -17
-74 3 -28 2 -53 -4 -56 -5 -4 -9 -34 -9 -69 0 -51 4 -67 20 -81 15 -14 19 -26
15 -47 -9 -38 34 -82 73 -75 19 4 35 -2 55 -19 37 -31 112 -33 149 -5 15 12
33 18 46 14 39 -10 72 6 89 42 16 33 15 35 -9 72 -25 38 -25 38 -6 68 10 17
16 36 13 44 -3 8 11 27 31 45 34 30 37 37 41 94 3 56 1 64 -24 91 -31 33 -90
45 -150 29z m126 -42 c7 -9 11 -41 9 -83 l-3 -68 -75 0 -75 0 -3 69 c-2 38 -1
75 2 83 8 19 129 18 145 -1z m-174 -86 l0 -65 -48 -3 c-63 -4 -77 9 -77 67 0
61 13 73 75 69 l50 -3 0 -65z m-150 0 l0 -45 -47 -3 -48 -3 0 51 0 51 48 -3
47 -3 0 -45z m13 -142 l-3 -63 -60 0 -60 0 -3 49 c-5 72 -1 76 68 76 l61 0 -3
-62z m130 0 l3 -48 -50 0 -51 0 0 43 c0 24 3 47 7 51 4 4 25 6 48 4 l40 -3 3
-47z m120 0 c3 -25 0 -28 -27 -28 -26 0 -31 4 -31 23 0 30 9 39 35 35 13 -2
21 -12 23 -30z m-103 -143 l0 -60 -65 0 -65 0 -3 49 c-5 74 -2 77 70 74 l63
-3 0 -60z m113 -2 c-3 -36 -5 -38 -38 -38 -29 0 -36 4 -38 23 -6 39 5 52 43
52 36 0 36 -1 33 -37z m-293 -3 c0 -20 -6 -26 -27 -28 -25 -3 -28 0 -28 28 0
28 3 31 28 28 21 -2 27 -8 27 -28z"/>
<path d="M1114 751 c-31 -13 -36 -36 -13 -64 11 -15 19 -41 19 -64 0 -26 7
-47 20 -61 25 -26 28 -27 51 -6 17 15 21 15 42 1 16 -10 28 -12 40 -5 10 5 23
6 30 1 6 -4 65 -8 130 -9 99 -2 122 -6 151 -23 39 -25 88 -27 106 -6 7 8 17
15 23 15 6 0 18 7 28 16 12 10 25 14 36 9 35 -15 111 -14 124 1 15 18 28 18
51 -3 17 -15 20 -15 53 2 31 17 36 18 52 4 17 -15 46 -16 163 -10 8 0 33 -2
55 -5 49 -7 70 12 80 73 6 37 3 45 -20 69 -23 23 -31 25 -71 19 -40 -6 -51 -3
-87 21 -35 23 -51 27 -97 25 -38 -2 -61 -8 -76 -22 -26 -24 -36 -24 -52 2 -10
16 -19 19 -40 14 -15 -4 -37 -8 -50 -10 -13 -1 -28 -7 -35 -14 -17 -17 -36
-13 -69 14 l-31 26 -23 -22 c-32 -30 -155 -51 -230 -39 -31 5 -75 7 -98 4 -36
-5 -47 -2 -74 21 -26 22 -44 27 -99 30 -38 3 -77 0 -89 -4z m116 -37 c0 -12
-7 -15 -25 -12 -25 5 -25 4 -25 -63 0 -57 -3 -69 -16 -69 -14 0 -16 10 -12 65
l4 65 -28 0 c-18 0 -28 5 -28 15 0 12 14 15 65 15 53 0 65 -3 65 -16z m40 -13
c0 -25 3 -28 26 -23 16 3 30 -1 35 -9 12 -19 11 -99 0 -99 -6 0 -11 19 -13 43
-2 35 -7 43 -25 45 -21 3 -23 -1 -23 -42 0 -34 -4 -46 -15 -46 -11 0 -14 16
-12 80 1 56 6 80 15 80 7 0 12 -12 12 -29z m470 0 c0 -25 3 -28 26 -23 16 3
30 -1 35 -9 12 -19 11 -99 0 -99 -6 0 -11 19 -13 43 -2 35 -7 43 -25 45 -21 3
-23 -1 -23 -42 0 -25 -4 -46 -10 -46 -6 0 -10 28 -10 64 0 35 -3 71 -6 80 -4
11 -1 16 10 16 11 0 16 -9 16 -29z m212 -37 l25 -66 23 61 c22 59 35 79 46 68
9 -9 -58 -157 -71 -157 -6 0 -25 33 -41 72 -16 40 -30 76 -32 80 -2 5 3 8 11
8 9 0 24 -26 39 -66z m188 37 c0 -25 3 -28 25 -23 33 6 55 -14 55 -49 0 -42
-48 -86 -65 -59 -3 5 -12 7 -20 3 -12 -4 -15 9 -15 76 0 47 4 81 10 81 6 0 10
-13 10 -29z m-273 -1 c-4 -15 0 -20 14 -20 10 0 19 -4 19 -10 0 -5 -9 -10 -21
-10 -15 0 -19 -4 -15 -16 3 -9 6 -24 6 -35 0 -10 7 -19 15 -19 20 0 19 -16 -2
-24 -9 -4 -22 -1 -29 6 -14 15 -20 93 -9 126 9 27 29 30 22 2z m-419 -32 c22
-22 15 -76 -13 -94 -23 -15 -27 -15 -50 0 -28 18 -35 72 -13 94 15 15 61 15
76 0z m62 -32 c0 -48 8 -60 30 -46 10 6 13 23 11 49 -2 32 1 41 13 41 13 0 16
-12 16 -54 0 -50 -2 -55 -22 -55 -13 0 -32 -1 -42 -1 -26 -1 -36 17 -36 68 0
31 4 42 15 42 11 0 15 -12 15 -44z m184 22 c-10 -35 -24 -48 -51 -48 -14 0
-21 -4 -18 -10 3 -5 20 -10 36 -10 33 0 48 -22 29 -45 -15 -18 -71 -20 -87 -4
-8 8 -8 19 2 42 9 23 10 35 2 48 -17 27 8 49 55 49 36 0 39 -2 32 -22z m396
-33 c0 -37 -4 -55 -12 -55 -9 0 -12 16 -10 55 5 71 22 71 22 0z m228 43 c7 -7
12 -20 12 -30 0 -14 -8 -18 -40 -18 -30 0 -38 -3 -34 -14 8 -21 32 -28 55 -16
12 7 19 7 19 1 0 -6 -9 -15 -21 -21 -25 -14 -64 8 -74 40 -15 47 50 91 83 58z"/>
<path d="M2147 654 c-14 -14 -7 -62 10 -68 21 -9 45 20 41 49 -3 20 -37 33
-51 19z"/>
<path d="M1387 654 c-12 -13 -8 -51 8 -64 21 -18 47 5 43 39 -3 26 -35 41 -51
25z"/>
<path d="M1633 663 c-17 -6 -16 -30 1 -36 21 -8 40 17 24 30 -7 6 -19 8 -25 6z"/>
<path d="M1620 565 c0 -9 9 -15 24 -15 30 0 42 15 20 24 -27 10 -44 7 -44 -9z"/>
</g>
</svg>
