<svg xmlns="http://www.w3.org/2000/svg" version="1.1" xmlns:xlink="http://www.w3.org/1999/xlink" xmlns:svgjs="http://svgjs.dev/svgjs" width="2000" height="1500" viewBox="0 0 2000 1500"><rect width="2000" height="1500" fill="#ffffff"></rect><g transform="matrix(0.75,0,0,0.75,249.090909090909,642.0027531129857)"><svg viewBox="0 0 396 57" data-background-color="#040046" preserveAspectRatio="xMidYMid meet" height="287" width="2000" xmlns="http://www.w3.org/2000/svg" xmlns:xlink="http://www.w3.org/1999/xlink"><g id="tight-bounds" transform="matrix(1,0,0,1,0.2400000000000091,0.09857408854733762)"><svg viewBox="0 0 395.52 56.802851822905325" height="56.802851822905325" width="395.52"><g><svg viewBox="0 0 480.2290844317853 68.96839988882532" height="56.802851822905325" width="395.52"><g transform="matrix(1,0,0,1,0,1.2143495397694792)"><svg viewBox="0 0 395.52 66.53970080928636" height="66.53970080928636" width="395.52"><g id="textblocktransform"><svg viewBox="0 0 395.52 66.53970080928636" height="66.53970080928636" width="395.52" id="textblock"><g><svg viewBox="0 0 395.52 66.53970080928636" height="66.53970080928636" width="395.52"><g transform="matrix(1,0,0,1,0,0)"><svg width="395.52" viewBox="0.15 -38.35 298.63 50.24" height="66.53970080928636" data-palette-color="url(#c556f701-a534-4770-b42c-c55ad9bf1200)"></svg></g></svg></g></svg></g></svg></g><g transform="matrix(1,0,0,1,411.2284264082531,0)"><svg viewBox="0 0 69.00065802353224 68.96839988882532" height="68.96839988882532" width="69.00065802353224"><g><svg xmlns="http://www.w3.org/2000/svg" xmlns:xlink="http://www.w3.org/1999/xlink" version="1.1" x="0" y="0" viewBox="0.7607695154586737 0.7749999999999999 30.439230484541326 30.425" enable-background="new 0 0 32 32" xml:space="preserve" height="68.96839988882532" width="69.00065802353224" class="icon-icon-0" data-fill-palette-color="accent" id="icon-0"></svg></g></svg></g></svg></g><defs></defs><mask id="9ec1b399-72b8-4b3c-b763-5b7884a02c62"><g id="SvgjsG6785"><svg viewBox="0 0 395.52 56.802851822905325" height="56.802851822905325" width="395.52"><g><svg viewBox="0 0 480.2290844317853 68.96839988882532" height="56.802851822905325" width="395.52"><g transform="matrix(1,0,0,1,0,1.2143495397694792)"><svg viewBox="0 0 395.52 66.53970080928636" height="66.53970080928636" width="395.52"><g id="SvgjsG6784"><svg viewBox="0 0 395.52 66.53970080928636" height="66.53970080928636" width="395.52" id="SvgjsSvg6783"><g><svg viewBox="0 0 395.52 66.53970080928636" height="66.53970080928636" width="395.52"><g transform="matrix(1,0,0,1,0,0)"><svg width="395.52" viewBox="0.15 -38.35 298.63 50.24" height="66.53970080928636" data-palette-color="url(#c556f701-a534-4770-b42c-c55ad9bf1200)"><path d="M16.38 0.02L11.62 0.02 11.62-31.98 0.15-31.98 0.15-35.55 27.91-35.55 27.91-31.98 16.38-31.98 16.38 0.02ZM36.55 0L32.13 0 32.13-37.6 36.57-38.09 36.57-28 36.42-21.48Q37.79-24.58 40.09-25.79 42.38-27 45.14-27L45.14-27Q49.41-27 51.68-24.22 53.95-21.44 53.95-16.36L53.95-16.36 53.95 0 49.46 0 49.46-16.14Q49.46-19.92 48.26-21.8 47.07-23.68 44.24-23.68L44.24-23.68Q42.04-23.68 40.56-22.91 39.08-22.14 38.19-20.84 37.3-19.53 36.92-17.91 36.55-16.28 36.55-14.55L36.55-14.55 36.55 0ZM72.55 0.49L72.55 0.49Q68.72 0.49 66.05-1.23 63.37-2.95 61.98-6.04 60.59-9.13 60.59-13.23L60.59-13.23Q60.59-17.43 61.96-20.52 63.33-23.61 66-25.31 68.67-27 72.55-27L72.55-27Q76.44-27 79.1-25.31 81.76-23.61 83.12-20.52 84.49-17.43 84.49-13.23L84.49-13.23Q84.49-9.13 83.1-6.04 81.71-2.95 79.05-1.23 76.39 0.49 72.55 0.49ZM72.55-2.81L72.55-2.81Q75.14-2.81 76.77-4.16 78.39-5.52 79.16-7.86 79.93-10.21 79.93-13.21L79.93-13.21Q79.93-16.28 79.16-18.64 78.39-21 76.75-22.34 75.12-23.68 72.55-23.68L72.55-23.68Q68.7-23.68 66.93-20.75 65.16-17.82 65.16-13.21L65.16-13.21Q65.16-10.21 65.93-7.86 66.69-5.52 68.33-4.16 69.97-2.81 72.55-2.81ZM100.63 0.49L100.63 0.49Q95.94 0.49 93.53-2.1 91.13-4.69 91.13-9.86L91.13-9.86 91.13-26.42 95.57-26.42 95.57-9.96Q95.57-7.69 96.12-6.08 96.67-4.47 97.92-3.61 99.16-2.76 101.24-2.76L101.24-2.76Q103.34-2.76 104.77-3.38 106.19-4 107.11-4.83 108.02-5.66 108.51-6.32L108.51-6.32 108.51-26.42 112.93-26.42 112.93 0 109.1 0 108.85-3.3Q107.54-1.64 105.53-0.57 103.53 0.49 100.63 0.49ZM130.63 11.89L130.63 11.89Q128.38 11.89 126.27 11.49 124.16 11.08 122.6 10.52L122.6 10.52 122.96 7.06 123.53 7.06Q125.04 7.69 126.96 8.06 128.87 8.42 130.58 8.42L130.58 8.42Q133.07 8.42 134.8 7.65 136.54 6.88 137.44 5.02 138.34 3.15 138.34-0.1L138.34-0.1Q138.34-0.66 138.33-1.2 138.32-1.73 138.32-2.27L138.32-2.27Q136.83-0.71 134.89-0.13 132.95 0.44 131.17 0.44L131.17 0.44Q128.46 0.44 126.33-0.51 124.21-1.46 122.74-3.26 121.28-5.05 120.51-7.6 119.74-10.16 119.74-13.33L119.74-13.33Q119.74-16.48 120.55-18.99 121.35-21.51 122.87-23.3 124.38-25.1 126.5-26.05 128.63-27 131.26-27L131.26-27Q133.78-27 135.6-26.06 137.42-25.12 138.54-23.73L138.54-23.73 138.74-26.42 142.52-26.42 142.52-1.27Q142.52 2.05 141.86 4.52 141.2 6.98 139.8 8.62 138.39 10.25 136.12 11.07 133.85 11.89 130.63 11.89ZM131.58-2.81L131.58-2.81Q132.63-2.81 133.61-2.99 134.58-3.17 135.44-3.53 136.29-3.88 137.01-4.42 137.73-4.96 138.25-5.66L138.25-5.66 138.25-20.41Q137.64-21.26 136.92-21.88 136.2-22.49 135.35-22.89 134.51-23.29 133.56-23.49 132.61-23.68 131.53-23.68L131.53-23.68Q129.73-23.68 128.37-22.97 127.02-22.27 126.1-20.94 125.19-19.6 124.73-17.69 124.28-15.77 124.28-13.35L124.28-13.35Q124.28-10.86 124.72-8.91 125.16-6.96 126.06-5.6 126.97-4.25 128.35-3.53 129.73-2.81 131.58-2.81ZM154.92 0L150.5 0 150.5-37.6 154.94-38.09 154.94-28 154.8-21.48Q156.16-24.58 158.46-25.79 160.75-27 163.51-27L163.51-27Q167.79-27 170.06-24.22 172.33-21.44 172.33-16.36L172.33-16.36 172.33 0 167.83 0 167.83-16.14Q167.83-19.92 166.64-21.8 165.44-23.68 162.61-23.68L162.61-23.68Q160.41-23.68 158.94-22.91 157.46-22.14 156.57-20.84 155.68-19.53 155.3-17.91 154.92-16.28 154.92-14.55L154.92-14.55 154.92 0ZM190.39 0.2L190.39 0.2Q187.58 0.2 185.86-0.23 184.14-0.66 183.25-1.61 182.36-2.56 182.04-4.17 181.72-5.79 181.72-8.15L181.72-8.15 181.72-23.71 177.55-23.71 177.67-26.17 181.85-26.39 182.48-33.54 186.17-33.81 186.17-26.42 193.2-26.42 193.2-23.71 186.17-23.71 186.17-8.13Q186.17-6.05 186.4-4.98 186.63-3.91 187.53-3.5 188.44-3.1 190.39-3.03L190.39-3.03Q191.05-3 191.71-2.98 192.37-2.95 193.03-2.93L193.03-2.93 192.83 0.2Q192.22 0.2 191.61 0.2 191 0.2 190.39 0.2ZM215.19 0.02L210.82 0.02 197.47-35.55 202.28-35.55Q203.64-31.79 205-28.04 206.35-24.29 207.72-20.54 209.09-16.8 210.42-13.01 211.75-9.23 213.04-5.42L213.04-5.42Q215.66-13.04 218.4-20.53 221.15-28.03 223.86-35.55L223.86-35.55 228.91-35.55 215.19 0.02ZM239.7 0L235.26 0 235.26-26.42 239.7-26.42 239.7 0ZM237.48-32.47L237.48-32.47Q235.99-32.47 235.19-33.25 234.38-34.03 234.38-35.45L234.38-35.45Q234.38-36.82 235.19-37.59 235.99-38.35 237.48-38.35L237.48-38.35Q238.97-38.35 239.77-37.59 240.58-36.82 240.58-35.45L240.58-35.45Q240.58-34.03 239.77-33.25 238.97-32.47 237.48-32.47ZM259.3 0.49L259.3 0.49Q256.72 0.49 254.77-0.45 252.83-1.39 251.64-2.81L251.64-2.81 251.37 0 247.76 0 247.76-37.6 252.2-38.09 252.2-27.08 252.03-21.53Q252.93-23.73 254.24-24.91 255.54-26.1 257.08-26.55 258.62-27 260.13-27L260.13-27Q263.72-27 266.03-25.23 268.34-23.46 269.45-20.36 270.56-17.26 270.56-13.26L270.56-13.26Q270.56-9.13 269.24-6.04 267.92-2.95 265.42-1.23 262.92 0.49 259.3 0.49ZM259.04-2.81L259.04-2.81Q261.48-2.81 263.01-4.08 264.55-5.35 265.29-7.69 266.02-10.03 266.02-13.23L266.02-13.23Q266.02-16.28 265.42-18.64 264.82-21 263.41-22.34 261.99-23.68 259.5-23.68L259.5-23.68Q256.89-23.68 255.23-22.44 253.57-21.19 252.8-18.95 252.03-16.7 252.03-13.65L252.03-13.65 252.03-6.1Q252.83-5 253.91-4.27 254.98-3.54 256.29-3.17 257.59-2.81 259.04-2.81ZM289.01 0.49L289.01 0.49Q285.45 0.49 282.58-1.15 279.71-2.78 278.04-5.85 276.37-8.91 276.37-13.13L276.37-13.13Q276.37-17.53 278-20.63 279.64-23.73 282.4-25.37 285.16-27 288.48-27L288.48-27Q291.72-27 294.02-25.56 296.31-24.12 297.55-21.46 298.78-18.8 298.78-15.14L298.78-15.14Q298.78-14.77 298.72-14.14 298.66-13.5 298.61-12.99 298.56-12.48 298.56-12.43L298.56-12.43 280.91-12.43Q281.1-9.06 282.26-6.93 283.42-4.81 285.31-3.81 287.21-2.81 289.57-2.81L289.57-2.81Q291.85-2.81 293.46-3.45 295.07-4.1 296.7-5.03L296.7-5.03 297.02-5.03 298.05-2.12Q296.41-1 294.1-0.26 291.8 0.49 289.01 0.49ZM280.98-15.31L280.98-15.31 294.97-15.31Q294.92-19.29 293.4-21.5 291.87-23.71 288.7-23.71L288.7-23.71Q285.5-23.71 283.41-21.45 281.32-19.19 280.98-15.31Z" opacity="1" transform="matrix(1,0,0,1,0,0)" fill="white" class="wordmark-text-0" id="SvgjsPath6782"></path></svg></g></svg></g></svg></g></svg></g><g transform="matrix(1,0,0,1,411.2284264082531,0)"><svg viewBox="0 0 69.00065802353224 68.96839988882532" height="68.96839988882532" width="69.00065802353224"><g><svg xmlns="http://www.w3.org/2000/svg" xmlns:xlink="http://www.w3.org/1999/xlink" version="1.1" x="0" y="0" viewBox="0.7607695154586737 0.7749999999999999 30.439230484541326 30.425" enable-background="new 0 0 32 32" xml:space="preserve" height="68.96839988882532" width="69.00065802353224" class="icon-icon-0" data-fill-palette-color="accent" id="SvgjsSvg6781"><g fill="black"><g fill="black"><path fill="black" d="M1.5 31.2C1.3 31.2 1.1 31.1 1 31 0.8 30.8 0.7 30.6 0.8 30.3L4.5 11.2C4.6 10.9 4.8 10.6 5.1 10.6L14.7 9.3C14.9 9.3 15.2 9.3 15.3 9.5L22.5 16.7C22.7 16.9 22.7 17.1 22.7 17.3L21.4 26.9C21.4 27.2 21.1 27.5 20.8 27.5L1.6 31.2zM5.8 12.1L2.4 29.6 19.9 26.2 21.1 17.5 14.4 10.8z"></path></g><g fill="black"><rect x="5.2" y="19.8" transform="matrix(-0.7071 -0.7071 0.7071 -0.7071 -8.3465 48.7211)" fill="black" width="1.5" height="12.6"></rect></g><g fill="black"><path fill="black" d="M12 23.1C11.2 23.1 10.4 22.8 9.8 22.2S8.9 20.9 8.9 20C8.9 19.2 9.2 18.4 9.8 17.8 11 16.6 13 16.6 14.1 17.8 15.3 19 15.3 20.9 14.1 22.1 13.6 22.8 12.8 23.1 12 23.1M12 18.4C11.6 18.4 11.2 18.6 10.9 18.9S10.4 19.6 10.4 20 10.6 20.8 10.9 21.1C11.5 21.7 12.5 21.7 13.1 21.1S13.7 19.5 13.1 18.9C12.8 18.6 12.4 18.4 12 18.4"></path></g><g fill="black"><path fill="black" d="M23.8 18.7C22.9 18.7 22 18.3 21.4 17.7L14.3 10.6C13 9.3 13 7.1 14.3 5.8L19.1 1C19.4 0.7 19.9 0.7 20.2 1L31 11.8C31.1 11.9 31.2 12.1 31.2 12.3S31.1 12.7 31 12.8L26.1 17.7C25.5 18.4 24.7 18.7 23.8 18.7M19.7 2.6L15.4 6.9C14.7 7.6 14.7 8.9 15.4 9.6L22.5 16.7C23.2 17.4 24.5 17.4 25.2 16.7L29.5 12.4z"></path></g></g></svg></g></svg></g></svg></g><defs><mask></mask></defs></svg><rect width="395.52" height="56.802851822905325" fill="black" stroke="none" visibility="hidden"></rect></g></mask><linearGradient x1="0" x2="1" y1="0.578" y2="0.595" id="c556f701-a534-4770-b42c-c55ad9bf1200"><stop stop-color="#6ee2f5" offset="0"></stop><stop stop-color="#6454f0" offset="1"></stop></linearGradient><rect width="395.52" height="56.802851822905325" fill="#000000" mask="url(#9ec1b399-72b8-4b3c-b763-5b7884a02c62)" data-fill-palette-color="primary"></rect><mask id="2f474c44-38a3-46ab-81c2-43656f21221c"><g id="SvgjsG6804"><svg viewBox="0 0 395.52 56.802851822905325" height="56.802851822905325" width="395.52"><g><svg viewBox="0 0 480.2290844317853 68.96839988882532" height="56.802851822905325" width="395.52"><g transform="matrix(1,0,0,1,0,1.2143495397694792)"><svg viewBox="0 0 395.52 66.53970080928636" height="66.53970080928636" width="395.52"><g id="SvgjsG6803"><svg viewBox="0 0 395.52 66.53970080928636" height="66.53970080928636" width="395.52" id="SvgjsSvg6802"><g><svg viewBox="0 0 395.52 66.53970080928636" height="66.53970080928636" width="395.52"><g transform="matrix(1,0,0,1,0,0)"><svg width="395.52" viewBox="0.15 -38.35 298.63 50.24" height="66.53970080928636" data-palette-color="url(#c556f701-a534-4770-b42c-c55ad9bf1200)"></svg></g></svg></g></svg></g></svg></g><g transform="matrix(1,0,0,1,411.2284264082531,0)"><svg viewBox="0 0 69.00065802353224 68.96839988882532" height="68.96839988882532" width="69.00065802353224"><g><svg xmlns="http://www.w3.org/2000/svg" xmlns:xlink="http://www.w3.org/1999/xlink" version="1.1" x="0" y="0" viewBox="0.7607695154586737 0.7749999999999999 30.439230484541326 30.425" enable-background="new 0 0 32 32" xml:space="preserve" height="68.96839988882532" width="69.00065802353224" class="icon-icon-0" data-fill-palette-color="accent" id="SvgjsSvg6801"><g fill="white"><g fill="white"><path fill="white" d="M1.5 31.2C1.3 31.2 1.1 31.1 1 31 0.8 30.8 0.7 30.6 0.8 30.3L4.5 11.2C4.6 10.9 4.8 10.6 5.1 10.6L14.7 9.3C14.9 9.3 15.2 9.3 15.3 9.5L22.5 16.7C22.7 16.9 22.7 17.1 22.7 17.3L21.4 26.9C21.4 27.2 21.1 27.5 20.8 27.5L1.6 31.2zM5.8 12.1L2.4 29.6 19.9 26.2 21.1 17.5 14.4 10.8z"></path></g><g fill="white"><rect x="5.2" y="19.8" transform="matrix(-0.7071 -0.7071 0.7071 -0.7071 -8.3465 48.7211)" fill="white" width="1.5" height="12.6"></rect></g><g fill="white"><path fill="white" d="M12 23.1C11.2 23.1 10.4 22.8 9.8 22.2S8.9 20.9 8.9 20C8.9 19.2 9.2 18.4 9.8 17.8 11 16.6 13 16.6 14.1 17.8 15.3 19 15.3 20.9 14.1 22.1 13.6 22.8 12.8 23.1 12 23.1M12 18.4C11.6 18.4 11.2 18.6 10.9 18.9S10.4 19.6 10.4 20 10.6 20.8 10.9 21.1C11.5 21.7 12.5 21.7 13.1 21.1S13.7 19.5 13.1 18.9C12.8 18.6 12.4 18.4 12 18.4"></path></g><g fill="white"><path fill="white" d="M23.8 18.7C22.9 18.7 22 18.3 21.4 17.7L14.3 10.6C13 9.3 13 7.1 14.3 5.8L19.1 1C19.4 0.7 19.9 0.7 20.2 1L31 11.8C31.1 11.9 31.2 12.1 31.2 12.3S31.1 12.7 31 12.8L26.1 17.7C25.5 18.4 24.7 18.7 23.8 18.7M19.7 2.6L15.4 6.9C14.7 7.6 14.7 8.9 15.4 9.6L22.5 16.7C23.2 17.4 24.5 17.4 25.2 16.7L29.5 12.4z"></path></g></g></svg></g></svg></g></svg></g><defs><mask></mask></defs><mask><g id="SvgjsG6800"><svg viewBox="0 0 395.52 56.802851822905325" height="56.802851822905325" width="395.52"><g><svg viewBox="0 0 480.2290844317853 68.96839988882532" height="56.802851822905325" width="395.52"><g transform="matrix(1,0,0,1,0,1.2143495397694792)"><svg viewBox="0 0 395.52 66.53970080928636" height="66.53970080928636" width="395.52"><g id="SvgjsG6799"><svg viewBox="0 0 395.52 66.53970080928636" height="66.53970080928636" width="395.52" id="SvgjsSvg6798"><g><svg viewBox="0 0 395.52 66.53970080928636" height="66.53970080928636" width="395.52"><g transform="matrix(1,0,0,1,0,0)"><svg width="395.52" viewBox="0.15 -38.35 298.63 50.24" height="66.53970080928636" data-palette-color="url(#c556f701-a534-4770-b42c-c55ad9bf1200)"><path d="M16.38 0.02L11.62 0.02 11.62-31.98 0.15-31.98 0.15-35.55 27.91-35.55 27.91-31.98 16.38-31.98 16.38 0.02ZM36.55 0L32.13 0 32.13-37.6 36.57-38.09 36.57-28 36.42-21.48Q37.79-24.58 40.09-25.79 42.38-27 45.14-27L45.14-27Q49.41-27 51.68-24.22 53.95-21.44 53.95-16.36L53.95-16.36 53.95 0 49.46 0 49.46-16.14Q49.46-19.92 48.26-21.8 47.07-23.68 44.24-23.68L44.24-23.68Q42.04-23.68 40.56-22.91 39.08-22.14 38.19-20.84 37.3-19.53 36.92-17.91 36.55-16.28 36.55-14.55L36.55-14.55 36.55 0ZM72.55 0.49L72.55 0.49Q68.72 0.49 66.05-1.23 63.37-2.95 61.98-6.04 60.59-9.13 60.59-13.23L60.59-13.23Q60.59-17.43 61.96-20.52 63.33-23.61 66-25.31 68.67-27 72.55-27L72.55-27Q76.44-27 79.1-25.31 81.76-23.61 83.12-20.52 84.49-17.43 84.49-13.23L84.49-13.23Q84.49-9.13 83.1-6.04 81.71-2.95 79.05-1.23 76.39 0.49 72.55 0.49ZM72.55-2.81L72.55-2.81Q75.14-2.81 76.77-4.16 78.39-5.52 79.16-7.86 79.93-10.21 79.93-13.21L79.93-13.21Q79.93-16.28 79.16-18.64 78.39-21 76.75-22.34 75.12-23.68 72.55-23.68L72.55-23.68Q68.7-23.68 66.93-20.75 65.16-17.82 65.16-13.21L65.16-13.21Q65.16-10.21 65.93-7.86 66.69-5.52 68.33-4.16 69.97-2.81 72.55-2.81ZM100.63 0.49L100.63 0.49Q95.94 0.49 93.53-2.1 91.13-4.69 91.13-9.86L91.13-9.86 91.13-26.42 95.57-26.42 95.57-9.96Q95.57-7.69 96.12-6.08 96.67-4.47 97.92-3.61 99.16-2.76 101.24-2.76L101.24-2.76Q103.34-2.76 104.77-3.38 106.19-4 107.11-4.83 108.02-5.66 108.51-6.32L108.51-6.32 108.51-26.42 112.93-26.42 112.93 0 109.1 0 108.85-3.3Q107.54-1.64 105.53-0.57 103.53 0.49 100.63 0.49ZM130.63 11.89L130.63 11.89Q128.38 11.89 126.27 11.49 124.16 11.08 122.6 10.52L122.6 10.52 122.96 7.06 123.53 7.06Q125.04 7.69 126.96 8.06 128.87 8.42 130.58 8.42L130.58 8.42Q133.07 8.42 134.8 7.65 136.54 6.88 137.44 5.02 138.34 3.15 138.34-0.1L138.34-0.1Q138.34-0.66 138.33-1.2 138.32-1.73 138.32-2.27L138.32-2.27Q136.83-0.71 134.89-0.13 132.95 0.44 131.17 0.44L131.17 0.44Q128.46 0.44 126.33-0.51 124.21-1.46 122.74-3.26 121.28-5.05 120.51-7.6 119.74-10.16 119.74-13.33L119.74-13.33Q119.74-16.48 120.55-18.99 121.35-21.51 122.87-23.3 124.38-25.1 126.5-26.05 128.63-27 131.26-27L131.26-27Q133.78-27 135.6-26.06 137.42-25.12 138.54-23.73L138.54-23.73 138.74-26.42 142.52-26.42 142.52-1.27Q142.52 2.05 141.86 4.52 141.2 6.98 139.8 8.62 138.39 10.25 136.12 11.07 133.85 11.89 130.63 11.89ZM131.58-2.81L131.58-2.81Q132.63-2.81 133.61-2.99 134.58-3.17 135.44-3.53 136.29-3.88 137.01-4.42 137.73-4.96 138.25-5.66L138.25-5.66 138.25-20.41Q137.64-21.26 136.92-21.88 136.2-22.49 135.35-22.89 134.51-23.29 133.56-23.49 132.61-23.68 131.53-23.68L131.53-23.68Q129.73-23.68 128.37-22.97 127.02-22.27 126.1-20.94 125.19-19.6 124.73-17.69 124.28-15.77 124.28-13.35L124.28-13.35Q124.28-10.86 124.72-8.91 125.16-6.96 126.06-5.6 126.97-4.25 128.35-3.53 129.73-2.81 131.58-2.81ZM154.92 0L150.5 0 150.5-37.6 154.94-38.09 154.94-28 154.8-21.48Q156.16-24.58 158.46-25.79 160.75-27 163.51-27L163.51-27Q167.79-27 170.06-24.22 172.33-21.44 172.33-16.36L172.33-16.36 172.33 0 167.83 0 167.83-16.14Q167.83-19.92 166.64-21.8 165.44-23.68 162.61-23.68L162.61-23.68Q160.41-23.68 158.94-22.91 157.46-22.14 156.57-20.84 155.68-19.53 155.3-17.91 154.92-16.28 154.92-14.55L154.92-14.55 154.92 0ZM190.39 0.2L190.39 0.2Q187.58 0.2 185.86-0.23 184.14-0.66 183.25-1.61 182.36-2.56 182.04-4.17 181.72-5.79 181.72-8.15L181.72-8.15 181.72-23.71 177.55-23.71 177.67-26.17 181.85-26.39 182.48-33.54 186.17-33.81 186.17-26.42 193.2-26.42 193.2-23.71 186.17-23.71 186.17-8.13Q186.17-6.05 186.4-4.98 186.63-3.91 187.53-3.5 188.44-3.1 190.39-3.03L190.39-3.03Q191.05-3 191.71-2.98 192.37-2.95 193.03-2.93L193.03-2.93 192.83 0.2Q192.22 0.2 191.61 0.2 191 0.2 190.39 0.2ZM215.19 0.02L210.82 0.02 197.47-35.55 202.28-35.55Q203.64-31.79 205-28.04 206.35-24.29 207.72-20.54 209.09-16.8 210.42-13.01 211.75-9.23 213.04-5.42L213.04-5.42Q215.66-13.04 218.4-20.53 221.15-28.03 223.86-35.55L223.86-35.55 228.91-35.55 215.19 0.02ZM239.7 0L235.26 0 235.26-26.42 239.7-26.42 239.7 0ZM237.48-32.47L237.48-32.47Q235.99-32.47 235.19-33.25 234.38-34.03 234.38-35.45L234.38-35.45Q234.38-36.82 235.19-37.59 235.99-38.35 237.48-38.35L237.48-38.35Q238.97-38.35 239.77-37.59 240.58-36.82 240.58-35.45L240.58-35.45Q240.58-34.03 239.77-33.25 238.97-32.47 237.48-32.47ZM259.3 0.49L259.3 0.49Q256.72 0.49 254.77-0.45 252.83-1.39 251.64-2.81L251.64-2.81 251.37 0 247.76 0 247.76-37.6 252.2-38.09 252.2-27.08 252.03-21.53Q252.93-23.73 254.24-24.91 255.54-26.1 257.08-26.55 258.62-27 260.13-27L260.13-27Q263.72-27 266.03-25.23 268.34-23.46 269.45-20.36 270.56-17.26 270.56-13.26L270.56-13.26Q270.56-9.13 269.24-6.04 267.92-2.95 265.42-1.23 262.92 0.49 259.3 0.49ZM259.04-2.81L259.04-2.81Q261.48-2.81 263.01-4.08 264.55-5.35 265.29-7.69 266.02-10.03 266.02-13.23L266.02-13.23Q266.02-16.28 265.42-18.64 264.82-21 263.41-22.34 261.99-23.68 259.5-23.68L259.5-23.68Q256.89-23.68 255.23-22.44 253.57-21.19 252.8-18.95 252.03-16.7 252.03-13.65L252.03-13.65 252.03-6.1Q252.83-5 253.91-4.27 254.98-3.54 256.29-3.17 257.59-2.81 259.04-2.81ZM289.01 0.49L289.01 0.49Q285.45 0.49 282.58-1.15 279.71-2.78 278.04-5.85 276.37-8.91 276.37-13.13L276.37-13.13Q276.37-17.53 278-20.63 279.64-23.73 282.4-25.37 285.16-27 288.48-27L288.48-27Q291.72-27 294.02-25.56 296.31-24.12 297.55-21.46 298.78-18.8 298.78-15.14L298.78-15.14Q298.78-14.77 298.72-14.14 298.66-13.5 298.61-12.99 298.56-12.48 298.56-12.43L298.56-12.43 280.91-12.43Q281.1-9.06 282.26-6.93 283.42-4.81 285.31-3.81 287.21-2.81 289.57-2.81L289.57-2.81Q291.85-2.81 293.46-3.45 295.07-4.1 296.7-5.03L296.7-5.03 297.02-5.03 298.05-2.12Q296.41-1 294.1-0.26 291.8 0.49 289.01 0.49ZM280.98-15.31L280.98-15.31 294.97-15.31Q294.92-19.29 293.4-21.5 291.87-23.71 288.7-23.71L288.7-23.71Q285.5-23.71 283.41-21.45 281.32-19.19 280.98-15.31Z" opacity="1" transform="matrix(1,0,0,1,0,0)" fill="black" class="wordmark-text-0" id="SvgjsPath6797"></path></svg></g></svg></g></svg></g></svg></g><g transform="matrix(1,0,0,1,411.2284264082531,0)"><svg viewBox="0 0 69.00065802353224 68.96839988882532" height="68.96839988882532" width="69.00065802353224"><g><svg xmlns="http://www.w3.org/2000/svg" xmlns:xlink="http://www.w3.org/1999/xlink" version="1.1" x="0" y="0" viewBox="0.7607695154586737 0.7749999999999999 30.439230484541326 30.425" enable-background="new 0 0 32 32" xml:space="preserve" height="68.96839988882532" width="69.00065802353224" class="icon-icon-0" data-fill-palette-color="accent" id="SvgjsSvg6796"><g fill="black"><g fill="black"><path fill="black" d="M1.5 31.2C1.3 31.2 1.1 31.1 1 31 0.8 30.8 0.7 30.6 0.8 30.3L4.5 11.2C4.6 10.9 4.8 10.6 5.1 10.6L14.7 9.3C14.9 9.3 15.2 9.3 15.3 9.5L22.5 16.7C22.7 16.9 22.7 17.1 22.7 17.3L21.4 26.9C21.4 27.2 21.1 27.5 20.8 27.5L1.6 31.2zM5.8 12.1L2.4 29.6 19.9 26.2 21.1 17.5 14.4 10.8z"></path></g><g fill="black"><rect x="5.2" y="19.8" transform="matrix(-0.7071 -0.7071 0.7071 -0.7071 -8.3465 48.7211)" fill="black" width="1.5" height="12.6"></rect></g><g fill="black"><path fill="black" d="M12 23.1C11.2 23.1 10.4 22.8 9.8 22.2S8.9 20.9 8.9 20C8.9 19.2 9.2 18.4 9.8 17.8 11 16.6 13 16.6 14.1 17.8 15.3 19 15.3 20.9 14.1 22.1 13.6 22.8 12.8 23.1 12 23.1M12 18.4C11.6 18.4 11.2 18.6 10.9 18.9S10.4 19.6 10.4 20 10.6 20.8 10.9 21.1C11.5 21.7 12.5 21.7 13.1 21.1S13.7 19.5 13.1 18.9C12.8 18.6 12.4 18.4 12 18.4"></path></g><g fill="black"><path fill="black" d="M23.8 18.7C22.9 18.7 22 18.3 21.4 17.7L14.3 10.6C13 9.3 13 7.1 14.3 5.8L19.1 1C19.4 0.7 19.9 0.7 20.2 1L31 11.8C31.1 11.9 31.2 12.1 31.2 12.3S31.1 12.7 31 12.8L26.1 17.7C25.5 18.4 24.7 18.7 23.8 18.7M19.7 2.6L15.4 6.9C14.7 7.6 14.7 8.9 15.4 9.6L22.5 16.7C23.2 17.4 24.5 17.4 25.2 16.7L29.5 12.4z"></path></g></g></svg></g></svg></g></svg></g><defs><mask></mask></defs></svg><rect width="395.52" height="56.802851822905325" fill="black" stroke="none" visibility="hidden"></rect></g></mask></svg><rect width="395.52" height="56.802851822905325" fill="black" stroke="none" visibility="hidden"></rect></g></mask><linearGradient x1="0" x2="1" y1="0.578" y2="0.595" id="5e77be22-7bb0-4607-be1e-dd99fe6cdcb8"><stop stop-color="#6ee2f5" offset="0"></stop><stop stop-color="#6454f0" offset="1"></stop></linearGradient><rect width="395.52" height="56.802851822905325" fill="#000000" mask="url(#2f474c44-38a3-46ab-81c2-43656f21221c)" data-fill-palette-color="accent"></rect></svg><rect width="395.52" height="56.802851822905325" fill="none" stroke="none" visibility="hidden"></rect></g></svg></g></svg>